<svg xmlns="http://www.w3.org/2000/svg" viewBox="0 0 500 500"><g id="freepik--background-complete--inject-7"><path d="M61.67,166.65a2.65,2.65,0,0,1,2.78,0l.72.41.74.37a2.64,2.64,0,0,1,1.55,2.3l.11,3.43,11.16-.35-.11-3.42A2.65,2.65,0,0,1,80,167c.48-.27,1-.56,1.41-.88a2.64,2.64,0,0,1,2.77-.17l3,1.61,5.28-9.84-3-1.62a2.65,2.65,0,0,1-1.38-2.41,15.35,15.35,0,0,0-.06-1.66,2.68,2.68,0,0,1,1.23-2.5l2.92-1.81-5.89-9.49-2.93,1.82a2.68,2.68,0,0,1-2.77,0c-.24-.14-.47-.28-.72-.41l-.73-.37a2.67,2.67,0,0,1-1.56-2.31l-.1-3.43-11.16.35.1,3.41a2.63,2.63,0,0,1-1.39,2.41,14.65,14.65,0,0,0-1.42.88,2.68,2.68,0,0,1-2.78.18l-3-1.62L52.56,149l3,1.62A2.66,2.66,0,0,1,57,153a13.37,13.37,0,0,0,0,1.67,2.64,2.64,0,0,1-1.23,2.49L52.87,159l5.89,9.49ZM64.46,149a9.15,9.15,0,1,1,3.75,12.39A9.16,9.16,0,0,1,64.46,149Z" style="fill:#ebebeb"></path><path d="M411.32,84.94a1.89,1.89,0,0,1,.91,1.73c0,.19,0,.38,0,.58s0,.38,0,.58a1.87,1.87,0,0,1-.91,1.72l-2.08,1.2,3.91,6.77,2.08-1.2a1.87,1.87,0,0,1,1.95.07,10.23,10.23,0,0,0,1,.59,1.87,1.87,0,0,1,1,1.65V101H427v-2.4a1.87,1.87,0,0,1,1-1.65,10.23,10.23,0,0,0,1-.59,1.87,1.87,0,0,1,1.95-.07l2.08,1.2L437,90.75l-2.09-1.21a1.84,1.84,0,0,1-.9-1.72c0-.19,0-.38,0-.57s0-.39,0-.58a1.87,1.87,0,0,1,.91-1.73l2.08-1.2L433.11,77,431,78.17a1.87,1.87,0,0,1-2-.07c-.33-.21-.67-.41-1-.59a1.86,1.86,0,0,1-1-1.65V73.47h-7.82v2.39a1.86,1.86,0,0,1-1,1.65c-.35.18-.69.38-1,.59a1.87,1.87,0,0,1-1.95.07L413.15,77l-3.91,6.77Zm11.81-4.11a6.41,6.41,0,1,1-6.41,6.42A6.42,6.42,0,0,1,423.13,80.83Z" style="fill:#ebebeb"></path><path d="M399.52,234.06A30.47,30.47,0,1,0,430,203.59,30.47,30.47,0,0,0,399.52,234.06Zm16.23,0A14.24,14.24,0,1,1,430,248.29,14.24,14.24,0,0,1,415.75,234.06Z" style="fill:#ebebeb"></path><polygon points="424.13 204.85 435.85 204.85 435.2 196.56 424.78 196.56 424.13 204.85" style="fill:#ebebeb"></polygon><polygon points="446.43 208.8 454.72 217.09 460.13 210.76 452.75 203.39 446.43 208.8" style="fill:#ebebeb"></polygon><polygon points="459.41 227.36 459.41 239.08 467.71 238.43 467.71 228.01 459.41 227.36" style="fill:#ebebeb"></polygon><polygon points="455.46 249.67 447.18 257.95 453.5 263.36 460.87 255.99 455.46 249.67" style="fill:#ebebeb"></polygon><polygon points="436.9 262.65 425.18 262.65 425.83 270.94 436.25 270.94 436.9 262.65" style="fill:#ebebeb"></polygon><polygon points="414.6 258.7 406.31 250.41 400.9 256.74 408.27 264.11 414.6 258.7" style="fill:#ebebeb"></polygon><polygon points="401.62 240.14 401.62 228.42 393.32 229.06 393.32 239.49 401.62 240.14" style="fill:#ebebeb"></polygon><polygon points="405.56 217.83 413.85 209.55 407.53 204.14 400.16 211.51 405.56 217.83" style="fill:#ebebeb"></polygon><path d="M104.3,211.19a30.48,30.48,0,1,0,30.48-30.47A30.48,30.48,0,0,0,104.3,211.19Zm16.24,0a14.24,14.24,0,1,1,14.24,14.22A14.25,14.25,0,0,1,120.54,211.19Z" style="fill:#ebebeb"></path><polygon points="128.92 181.98 140.63 181.98 139.99 173.68 129.56 173.68 128.92 181.98" style="fill:#ebebeb"></polygon><polygon points="151.22 185.93 159.51 194.21 164.91 187.89 157.54 180.52 151.22 185.93" style="fill:#ebebeb"></polygon><polygon points="164.2 204.49 164.2 216.21 172.5 215.56 172.5 205.14 164.2 204.49" style="fill:#ebebeb"></polygon><polygon points="160.25 226.79 151.97 235.08 158.29 240.49 165.66 233.12 160.25 226.79" style="fill:#ebebeb"></polygon><polygon points="141.69 239.77 129.97 239.77 130.62 248.07 141.04 248.07 141.69 239.77" style="fill:#ebebeb"></polygon><polygon points="119.39 235.82 111.1 227.54 105.69 233.86 113.06 241.23 119.39 235.82" style="fill:#ebebeb"></polygon><polygon points="106.41 217.26 106.41 205.54 98.11 206.19 98.11 216.61 106.41 217.26" style="fill:#ebebeb"></polygon><polygon points="110.36 194.96 118.64 186.67 112.32 181.26 104.95 188.63 110.36 194.96" style="fill:#ebebeb"></polygon><polygon points="201.18 330.93 200.07 337.72 198.88 345.01 188.04 411.51 170.3 411.51 181.15 345.01 182.34 337.72 183.44 330.93 201.18 330.93" style="fill:#ebebeb"></polygon><path d="M198.61,330.93c-.94,6.74-1.94,13.46-3,20.19l-3.12,20.15-3.28,20.14-1.69,10-1.76,10.05,1.44-10.1,1.51-10.08,3.13-20.16L195.16,351C196.28,344.33,197.41,337.63,198.61,330.93Z" style="fill:#c7c7c7"></path><polygon points="200.07 337.72 198.88 345.01 181.15 345.01 182.34 337.72 200.07 337.72" style="fill:#c7c7c7"></polygon><polygon points="288.74 330.93 289.84 337.72 291.03 345.01 301.87 411.51 319.61 411.51 308.76 345.01 307.58 337.72 306.47 330.93 288.74 330.93" style="fill:#ebebeb"></polygon><path d="M291.36,330.93c.93,6.74,1.94,13.46,3,20.19l3.12,20.15,3.28,20.14,1.69,10,1.76,10.05-1.44-10.1-1.51-10.08-3.13-20.16L294.81,351C293.69,344.33,292.56,337.63,291.36,330.93Z" style="fill:#c7c7c7"></path><polygon points="289.84 337.72 307.58 337.72 308.76 345.01 291.03 345.01 289.84 337.72" style="fill:#c7c7c7"></polygon><polygon points="200.53 312.23 186.47 312.23 188.22 299.12 198.78 299.12 200.53 312.23" style="fill:#c7c7c7"></polygon><path d="M206.61,289.75a13.11,13.11,0,1,1-13.11-13.11A13.1,13.1,0,0,1,206.61,289.75Z" style="fill:#dbdbdb"></path><path d="M203.46,289.75a10,10,0,1,1-10-10A10,10,0,0,1,203.46,289.75Z" style="fill:#fff"></path><path d="M201.83,289.17a8.64,8.64,0,0,0-3.26-6.11,8.78,8.78,0,0,0-6.7-1.76,8.45,8.45,0,0,0-5.76,3.75,8.81,8.81,0,0,0-1.05,7.18,8.28,8.28,0,0,0,3.89,4.93,8.72,8.72,0,0,0,6.1.94,9,9,0,0,0,5.12-3.14,9.39,9.39,0,0,0,2.1-5.55c0-.09,0-.17-.07-.18s-.09.08-.1.18a8.59,8.59,0,0,1-.47,2.4,9.56,9.56,0,0,1-1.1,2.16,9.88,9.88,0,0,1-1.63,1.79,10.64,10.64,0,0,1-2.07,1.34,8.31,8.31,0,0,1-6.8.16,8.15,8.15,0,0,1-4.61-5.06,8.45,8.45,0,0,1,.87-7,8.06,8.06,0,0,1,5.61-3.69,8.64,8.64,0,0,1,8.25,3.29,8.42,8.42,0,0,1,1.11,2.07,10,10,0,0,1,.53,2.31s0,0,0,0S201.83,289.2,201.83,289.17Z" style="fill:#ebebeb"></path><path d="M200.66,289.18a7.46,7.46,0,0,0-2.82-5.22,7.67,7.67,0,0,0-5.73-1.52,7.24,7.24,0,0,0-5,3.18,7.62,7.62,0,0,0-1,6.22,7.13,7.13,0,0,0,3.38,4.31,7.52,7.52,0,0,0,5.32.8,7.86,7.86,0,0,0,4.43-2.75,8.32,8.32,0,0,0,1.82-4.81c0-.08,0-.15-.08-.16s-.09.07-.1.15a7.91,7.91,0,0,1-4.55,6.64,7.14,7.14,0,0,1-5.88.17,7,7,0,0,1-4-4.39,7.3,7.3,0,0,1,.8-6,6.93,6.93,0,0,1,4.83-3.11,7.5,7.5,0,0,1,7,2.79,8.18,8.18,0,0,1,1,1.76,9.52,9.52,0,0,1,.47,2s0,0,0,0S200.67,289.2,200.66,289.18Z" style="fill:#ebebeb"></path><path d="M199.49,289.19a6.25,6.25,0,0,0-2.39-4.32,6.49,6.49,0,0,0-4.74-1.29,6.07,6.07,0,0,0-4.21,2.61,6.49,6.49,0,0,0-.89,5.27,5.93,5.93,0,0,0,2.87,3.68,6.39,6.39,0,0,0,4.54.66,6.69,6.69,0,0,0,3.74-2.36,7.18,7.18,0,0,0,1.53-4.07.12.12,0,0,0-.08-.14s-.09.06-.09.13a6.8,6.8,0,0,1-3.84,5.59,6,6,0,0,1-5,.18,5.88,5.88,0,0,1-3.36-3.73,6.09,6.09,0,0,1,.72-5,5.74,5.74,0,0,1,4.06-2.54,7,7,0,0,1,3.21.38,6.14,6.14,0,0,1,2.61,1.92,6.93,6.93,0,0,1,.82,1.45,7.39,7.39,0,0,1,.42,1.65s0,0,0,0S199.5,289.21,199.49,289.19Z" style="fill:#ebebeb"></path><path d="M198.33,289.2a5.18,5.18,0,0,0-2-3.43,5.35,5.35,0,0,0-3.77-1,4.89,4.89,0,0,0-3.44,2,5.3,5.3,0,0,0-.8,4.3,4.84,4.84,0,0,0,2.35,3.06,5.17,5.17,0,0,0,3.76.52,5.44,5.44,0,0,0,3.05-2,5.94,5.94,0,0,0,1.26-3.33.1.1,0,0,0-.08-.11s-.09,0-.1.11a5.65,5.65,0,0,1-3.11,4.53,4.86,4.86,0,0,1-4.05.19,4.71,4.71,0,0,1-2.73-3.06,4.9,4.9,0,0,1,.64-4.08,4.59,4.59,0,0,1,3.28-2,5.91,5.91,0,0,1,2.53.32,5,5,0,0,1,2.08,1.49,5.46,5.46,0,0,1,.68,1.14,7.64,7.64,0,0,1,.37,1.31,0,0,0,0,0,0,0S198.33,289.21,198.33,289.2Z" style="fill:#ebebeb"></path><polygon points="303.14 312.23 289.08 312.23 290.83 299.12 301.39 299.12 303.14 312.23" style="fill:#c7c7c7"></polygon><path d="M309.22,289.75a13.11,13.11,0,1,1-13.11-13.11A13.1,13.1,0,0,1,309.22,289.75Z" style="fill:#dbdbdb"></path><path d="M306.07,289.75a10,10,0,1,1-10-10A10,10,0,0,1,306.07,289.75Z" style="fill:#fff"></path><path d="M304.44,289.17a8.64,8.64,0,0,0-3.26-6.11,8.78,8.78,0,0,0-6.7-1.76,8.45,8.45,0,0,0-5.76,3.75,8.81,8.81,0,0,0-1.05,7.18,8.28,8.28,0,0,0,3.89,4.93,8.72,8.72,0,0,0,6.1.94,9,9,0,0,0,5.12-3.14,9.39,9.39,0,0,0,2.1-5.55c0-.09,0-.17-.07-.18s-.09.08-.1.18a8.59,8.59,0,0,1-.47,2.4,9.16,9.16,0,0,1-1.1,2.16,9.88,9.88,0,0,1-1.63,1.79,10.64,10.64,0,0,1-2.07,1.34,8.31,8.31,0,0,1-6.8.16A8.15,8.15,0,0,1,288,292.2a8.45,8.45,0,0,1,.87-7,8.06,8.06,0,0,1,5.61-3.69,8.64,8.64,0,0,1,8.25,3.29,8.42,8.42,0,0,1,1.11,2.07,10,10,0,0,1,.53,2.31s0,0,0,0S304.44,289.2,304.44,289.17Z" style="fill:#ebebeb"></path><path d="M303.27,289.18a7.46,7.46,0,0,0-2.82-5.22,7.67,7.67,0,0,0-5.73-1.52,7.24,7.24,0,0,0-5,3.18,7.62,7.62,0,0,0-1,6.22,7.13,7.13,0,0,0,3.38,4.31,7.52,7.52,0,0,0,5.32.8,7.86,7.86,0,0,0,4.43-2.75,8.32,8.32,0,0,0,1.82-4.81c0-.08,0-.15-.08-.16s-.09.07-.1.15A7.91,7.91,0,0,1,299,296a7.14,7.14,0,0,1-5.88.17,7,7,0,0,1-4-4.39,7.3,7.3,0,0,1,.8-6,6.93,6.93,0,0,1,4.83-3.11,7.5,7.5,0,0,1,7,2.79,8.18,8.18,0,0,1,1,1.76,9.52,9.52,0,0,1,.47,2s0,0,0,0S303.28,289.2,303.27,289.18Z" style="fill:#ebebeb"></path><path d="M302.1,289.19a6.25,6.25,0,0,0-2.39-4.32,6.49,6.49,0,0,0-4.74-1.29,6.07,6.07,0,0,0-4.21,2.61,6.49,6.49,0,0,0-.89,5.27,5.93,5.93,0,0,0,2.87,3.68,6.39,6.39,0,0,0,4.54.66,6.69,6.69,0,0,0,3.74-2.36,7.18,7.18,0,0,0,1.53-4.07.12.12,0,0,0-.08-.14s-.09.06-.09.13a6.78,6.78,0,0,1-3.84,5.59,6,6,0,0,1-5,.18,5.88,5.88,0,0,1-3.36-3.73,6.09,6.09,0,0,1,.72-5,5.74,5.74,0,0,1,4.06-2.54,7,7,0,0,1,3.21.38,6.14,6.14,0,0,1,2.61,1.92,6.93,6.93,0,0,1,.82,1.45,7.39,7.39,0,0,1,.42,1.65s0,0,0,0S302.11,289.21,302.1,289.19Z" style="fill:#ebebeb"></path><path d="M300.94,289.2a5.18,5.18,0,0,0-2-3.43,5.35,5.35,0,0,0-3.77-1,4.89,4.89,0,0,0-3.44,2,5.3,5.3,0,0,0-.8,4.3,4.84,4.84,0,0,0,2.35,3.06,5.17,5.17,0,0,0,3.76.52,5.5,5.5,0,0,0,3.06-2,6,6,0,0,0,1.25-3.33.1.1,0,0,0-.08-.11c-.05,0-.09,0-.1.11a5.65,5.65,0,0,1-3.11,4.53,4.86,4.86,0,0,1-4.05.19,4.71,4.71,0,0,1-2.73-3.06,4.9,4.9,0,0,1,.64-4.08,4.59,4.59,0,0,1,3.28-2,5.91,5.91,0,0,1,2.53.32,5,5,0,0,1,2.08,1.49,5.46,5.46,0,0,1,.68,1.14,7.64,7.64,0,0,1,.37,1.31,0,0,0,0,0,0,0S300.94,289.21,300.94,289.2Z" style="fill:#ebebeb"></path><rect x="156.59" y="305.54" width="176.72" height="33.8" style="fill:#dbdbdb"></rect><polygon points="192.92 305.54 180.09 339.35 157.27 339.35 170.09 305.54 192.92 305.54" style="fill:#ebebeb"></polygon><polygon points="239.7 305.54 226.88 339.35 204.04 339.35 216.87 305.54 239.7 305.54" style="fill:#ebebeb"></polygon><polygon points="286.48 305.54 273.65 339.35 250.83 339.35 263.65 305.54 286.48 305.54" style="fill:#ebebeb"></polygon><polygon points="333.26 305.54 320.43 339.35 297.6 339.35 310.43 305.54 333.26 305.54" style="fill:#ebebeb"></polygon><rect x="160.17" y="370.6" width="169.57" height="21.39" style="fill:#dbdbdb"></rect><polygon points="195.02 370.6 182.72 391.99 160.82 391.99 173.13 370.6 195.02 370.6" style="fill:#ebebeb"></polygon><polygon points="239.91 370.6 227.61 391.99 205.7 391.99 218.01 370.6 239.91 370.6" style="fill:#ebebeb"></polygon><polygon points="284.8 370.6 272.49 391.99 250.59 391.99 262.9 370.6 284.8 370.6" style="fill:#ebebeb"></polygon><polygon points="329.69 370.6 317.38 391.99 295.47 391.99 307.78 370.6 329.69 370.6" style="fill:#ebebeb"></polygon></g><g id="freepik--Shadow--inject-7"><ellipse cx="250" cy="448.36" rx="208.86" ry="17.45" style="fill:#ebebeb"></ellipse></g><g id="freepik--Floor--inject-7"><polygon points="30.64 411.51 85.48 411.27 140.32 411.18 250 411.01 359.68 411.18 414.52 411.27 469.36 411.51 414.52 411.76 359.68 411.84 250 412.01 140.32 411.84 85.48 411.75 30.64 411.51" style="fill:#263238"></polygon></g><g id="freepik--Gears--inject-7"><path d="M338.26,123.39a31.47,31.47,0,1,0,31.47-31.46A31.47,31.47,0,0,0,338.26,123.39Zm16.77,0a14.7,14.7,0,1,1,14.7,14.69A14.7,14.7,0,0,1,355,123.39Z" style="fill:#c7c7c7"></path><polygon points="363.68 93.23 375.77 93.23 375.11 84.67 364.35 84.67 363.68 93.23" style="fill:#c7c7c7"></polygon><polygon points="386.7 97.31 395.26 105.86 400.84 99.33 393.23 91.72 386.7 97.31" style="fill:#c7c7c7"></polygon><polygon points="400.11 116.47 400.11 128.57 408.67 127.91 408.67 117.14 400.11 116.47" style="fill:#c7c7c7"></polygon><polygon points="396.03 139.5 387.48 148.06 394 153.64 401.61 146.03 396.03 139.5" style="fill:#c7c7c7"></polygon><polygon points="376.86 152.91 364.76 152.91 365.43 161.47 376.19 161.47 376.86 152.91" style="fill:#c7c7c7"></polygon><polygon points="353.83 148.83 345.28 140.27 339.7 146.8 347.31 154.41 353.83 148.83" style="fill:#c7c7c7"></polygon><polygon points="340.43 129.66 340.43 117.56 331.87 118.23 331.87 128.99 340.43 129.66" style="fill:#c7c7c7"></polygon><polygon points="344.51 106.63 353.06 98.08 346.54 92.49 338.93 100.1 344.51 106.63" style="fill:#c7c7c7"></polygon><path d="M376.83,116.29l-9.71-2.6L360,120.8l2.6,9.69,9.7,2.6,7.11-7.1Zm-7.1,10.28a3.18,3.18,0,1,1,3.18-3.18A3.18,3.18,0,0,1,369.73,126.57Z" style="fill:#c7c7c7"></path><path d="M266,197a31.29,31.29,0,1,0,31.28-31.3A31.33,31.33,0,0,0,266,197Zm6.66,0a24.64,24.64,0,1,1,24.62,24.63A24.62,24.62,0,0,1,272.68,197ZM266,197a31.29,31.29,0,1,0,31.28-31.3A31.33,31.33,0,0,0,266,197Zm6.66,0a24.64,24.64,0,1,1,24.62,24.63A24.62,24.62,0,0,1,272.68,197Zm-28.12,0A52.75,52.75,0,1,0,297.3,144.2,52.74,52.74,0,0,0,244.56,197ZM263,197a34.3,34.3,0,1,1,34.28,34.29A34.34,34.34,0,0,1,263,197Zm3,0a31.29,31.29,0,1,0,31.28-31.3A31.33,31.33,0,0,0,266,197Zm6.66,0a24.64,24.64,0,1,1,24.62,24.63A24.62,24.62,0,0,1,272.68,197Z" style="fill:#FFC727"></path><polygon points="291.12 145.15 303.2 145.15 301.99 133.1 292.32 133.1 291.12 145.15" style="fill:#FFC727"></polygon><polygon points="317.85 149 328.31 155.03 333.29 143.99 324.92 139.16 317.85 149" style="fill:#FFC727"></polygon><polygon points="339.07 165.69 345.11 176.15 354.95 169.08 350.12 160.7 339.07 165.69" style="fill:#FFC727"></polygon><polygon points="349.11 190.76 349.11 202.84 361.17 201.63 361.17 191.96 349.11 190.76" style="fill:#FFC727"></polygon><polygon points="345.27 217.49 339.23 227.95 350.27 232.93 355.11 224.56 345.27 217.49" style="fill:#FFC727"></polygon><polygon points="328.58 238.71 318.12 244.75 325.19 254.59 333.56 249.76 328.58 238.71" style="fill:#FFC727"></polygon><polygon points="303.51 248.75 291.43 248.75 292.63 260.81 302.31 260.81 303.51 248.75" style="fill:#FFC727"></polygon><polygon points="276.78 244.91 266.32 238.87 261.33 249.91 269.71 254.75 276.78 244.91" style="fill:#FFC727"></polygon><polygon points="255.55 228.22 249.51 217.76 239.67 224.83 244.51 233.2 255.55 228.22" style="fill:#FFC727"></polygon><polygon points="245.51 203.15 245.51 191.07 233.46 192.27 233.46 201.94 245.51 203.15" style="fill:#FFC727"></polygon><polygon points="249.36 176.42 255.4 165.96 244.35 160.97 239.52 169.35 249.36 176.42" style="fill:#FFC727"></polygon><polygon points="266.05 155.19 276.51 149.15 269.44 139.31 261.06 144.15 266.05 155.19" style="fill:#FFC727"></polygon><path d="M126.75,113.64a14.36,14.36,0,1,0-13-15.63A14.35,14.35,0,0,0,126.75,113.64ZM115.53,98.18a12.6,12.6,0,1,1,11.37,13.71A12.59,12.59,0,0,1,115.53,98.18Zm11.22,15.46a14.36,14.36,0,1,0-13-15.63A14.35,14.35,0,0,0,126.75,113.64ZM115.53,98.18a12.6,12.6,0,1,1,11.37,13.71A12.59,12.59,0,0,1,115.53,98.18Zm11.22,15.46a14.36,14.36,0,1,0-13-15.63A14.35,14.35,0,0,0,126.75,113.64ZM115.53,98.18a12.6,12.6,0,1,1,11.37,13.71A12.59,12.59,0,0,1,115.53,98.18Zm9.74,31.3A30.26,30.26,0,1,0,98,96.55,30.28,30.28,0,0,0,125.27,129.48ZM111.56,97.81a16.59,16.59,0,1,1,15,18A16.61,16.61,0,0,1,111.56,97.81Zm2.23.2a14.35,14.35,0,1,0,15.61-13A14.34,14.34,0,0,0,113.79,98Zm1.74.17a12.6,12.6,0,1,1,11.37,13.71A12.59,12.59,0,0,1,115.53,98.18Zm11.22,15.46a14.36,14.36,0,1,0-13-15.63A14.35,14.35,0,0,0,126.75,113.64ZM115.53,98.18a12.6,12.6,0,1,1,11.37,13.71A12.59,12.59,0,0,1,115.53,98.18Zm11.22,15.46a14.36,14.36,0,1,0-13-15.63A14.35,14.35,0,0,0,126.75,113.64ZM115.53,98.18a12.6,12.6,0,1,1,11.37,13.71A12.59,12.59,0,0,1,115.53,98.18Z" style="fill:#455a64"></path><polygon points="124.97 69.93 136.55 71 136.68 62.74 126.37 61.78 124.97 69.93" style="fill:#455a64"></polygon><polygon points="146.66 75.88 154.09 84.83 160.01 79.08 153.41 71.11 146.66 75.88" style="fill:#455a64"></polygon><polygon points="157.78 95.42 156.71 107.01 164.97 107.13 165.93 96.83 157.78 95.42" style="fill:#455a64"></polygon><polygon points="151.83 117.11 142.88 124.54 148.63 130.47 156.6 123.86 151.83 117.11" style="fill:#455a64"></polygon><polygon points="132.29 128.24 120.7 127.16 120.58 135.42 130.88 136.38 132.29 128.24" style="fill:#455a64"></polygon><polygon points="110.6 122.29 103.17 113.33 97.24 119.09 103.85 127.05 110.6 122.29" style="fill:#455a64"></polygon><polygon points="99.47 102.74 100.55 91.16 92.29 91.03 91.33 101.34 99.47 102.74" style="fill:#455a64"></polygon><polygon points="105.42 81.05 114.38 73.62 108.62 67.69 100.66 74.31 105.42 81.05" style="fill:#455a64"></polygon><path d="M164.29,149.87a36.35,36.35,0,1,0,37.29-35.38A36.35,36.35,0,0,0,164.29,149.87Zm19.37.51a17,17,0,1,1,16.52,17.42A17,17,0,0,1,183.66,150.38Z" style="fill:#c7c7c7"></path><polygon points="194.56 115.81 208.53 116.18 208.02 106.27 195.59 105.94 194.56 115.81" style="fill:#c7c7c7"></polygon><polygon points="221.03 121.22 230.65 131.37 237.3 124 228.74 114.97 221.03 121.22" style="fill:#c7c7c7"></polygon><polygon points="235.92 143.77 235.56 157.74 245.47 157.23 245.79 144.8 235.92 143.77" style="fill:#c7c7c7"></polygon><polygon points="230.51 170.24 220.37 179.86 227.74 186.5 236.76 177.95 230.51 170.24" style="fill:#c7c7c7"></polygon><polygon points="207.97 185.13 194 184.76 194.51 194.67 206.94 195 207.97 185.13" style="fill:#c7c7c7"></polygon><polygon points="181.5 179.72 171.88 169.58 165.23 176.95 173.79 185.97 181.5 179.72" style="fill:#c7c7c7"></polygon><polygon points="166.61 157.18 166.98 143.21 157.06 143.72 156.74 156.15 166.61 157.18" style="fill:#c7c7c7"></polygon><polygon points="172.02 130.71 182.16 121.09 174.79 114.44 165.77 123 172.02 130.71" style="fill:#c7c7c7"></polygon><path d="M210.28,141.92l-11.91-3.53-9,8.56,2.9,12.07,11.91,3.54,9-8.55Zm-9.12,12.49a3.94,3.94,0,1,1,4.05-3.84A3.93,3.93,0,0,1,201.16,154.41Z" style="fill:#c7c7c7"></path></g><g id="freepik--Cones--inject-7"><path d="M313.84,438.52l5.57-38.31,1.61.73,2.58,1.17,11.17,5.05,10,4.52,6.59,3,10,4.53,5.49,2.48a5.28,5.28,0,0,1-1.42,9.81l-2.32.32h0l-3.65.5-10.88,1.48-7.17,1-10.9,1.49-4.55.62Z" style="fill:#FFC727"></path><path d="M321.3,401.28a23.78,23.78,0,0,1-2.05,4.14c-3.4,5.29-5.86,16.15-4,28.65a16,16,0,0,0,.82,3.95l2.33-.15s10.86-23.83,46.36-17.2l-3.36-1.52-10-4.52-6.59-3-10-4.52Z" style="opacity:0.1;mix-blend-mode:multiply"></path><polygon points="348.61 433.78 351.38 414.66 361.4 419.19 359.49 432.3 348.61 433.78" style="fill:#ebebeb"></polygon><polygon points="330.54 436.24 334.77 407.16 344.79 411.68 341.44 434.75 330.54 436.24" style="fill:#ebebeb"></polygon><path d="M216.12,437.56H178.83l.47-1.64.76-2.62L183.32,422l2.93-10.17,1.92-6.7,2.93-10.17,1.6-5.58a5.09,5.09,0,0,1,9.56,0l.62,2.16h0l1,3.41,2.92,10.17,1.92,6.7L211.63,422l1.22,4.26Z" style="fill:#FFC727"></path><polygon points="217.45 447.24 168.45 447.24 176.26 427.89 176.26 427.89 225.27 427.89 225.27 427.89 217.45 447.24 217.45 447.24" style="fill:#FFC727"></polygon><polygon points="206.78 405.08 188.17 405.08 191.1 394.91 203.86 394.91 206.78 405.08" style="fill:#ebebeb"></polygon><polygon points="211.63 421.95 183.32 421.95 186.25 411.78 208.71 411.78 211.63 421.95" style="fill:#ebebeb"></polygon><path d="M178.31,435a39.34,39.34,0,0,0,9.45,2.88,51,51,0,0,0,9.79.74c1.63-.11,3.28-.12,4.9-.37.82-.11,1.64-.16,2.45-.31s1.61-.3,2.43-.44c.4-.08.81-.14,1.21-.23l1.2-.3,2.41-.58c1.6-.43,3.17-1,4.8-1.39-1.51.71-3,1.43-4.58,2l-2.38.82-1.2.39c-.4.12-.81.21-1.22.32l-2.45.59c-.82.18-1.66.27-2.5.41a49.66,49.66,0,0,1-5,.46,40.42,40.42,0,0,1-10.05-1.08A27.42,27.42,0,0,1,178.31,435Z" style="fill:#263238"></path><path d="M179.59,435.61a23.36,23.36,0,0,1,4.23,1.38c5.52,2.5,16.2,3.34,27.87-.16a15.32,15.32,0,0,0,3.64-1.33l-.47-2.2s-24.22-7-22.82-41.8l-1,3.41-2.92,10.17-1.92,6.7L183.29,422Z" style="opacity:0.1;mix-blend-mode:multiply"></path><polygon points="303.69 438.44 311.01 388.1 329.73 399.02 322.41 449.36 303.69 438.44 303.69 438.44" style="fill:#FFC727"></polygon><path d="M322.34,419.85c-1,9.31-4.42,16.56-7.52,16.21s-4.78-8.17-3.74-17.47,4.42-16.56,7.53-16.21S323.39,410.55,322.34,419.85Z" style="fill:#263238"></path></g><g id="freepik--tools-box--inject-7"><rect x="47.1" y="406.61" width="2.83" height="44.19" style="fill:#FFC727"></rect><polygon points="85.35 430.95 83.02 430.14 84.24 429.58 83.63 428.39 84.85 427.83 84.25 426.64 85.46 426.08 84.86 424.89 86.08 424.33 85.47 423.13 86.69 422.58 86.08 421.38 87.3 420.82 86.69 419.63 87.91 419.07 87.31 417.88 88.52 417.32 87.92 416.13 89.14 415.57 88.53 414.38 89.75 413.82 89.14 412.63 90.36 412.07 89.76 410.87 90.97 410.32 90.37 409.12 91.59 408.56 90.98 407.37 92.2 406.81 91.59 405.62 92.81 405.06 92.2 403.87 93.42 403.31 92.82 402.12 94.03 401.56 93.43 400.36 94.65 399.81 94.04 398.61 95.26 398.06 94.65 396.86 95.87 396.3 95.27 395.11 96.48 394.55 95.88 393.36 97.09 392.8 96.49 391.61 97.71 391.05 97.1 389.86 98.32 389.3 97.72 388.1 98.93 387.55 98.33 386.35 99.54 385.8 98.94 384.6 101.27 385.41 85.35 430.95" style="fill:#c7c7c7"></polygon><rect x="96.67" y="378.91" width="10.28" height="2.49" transform="matrix(-0.33, 0.94, -0.94, -0.33, 494.27, 409.47)" style="fill:#37474f"></rect><path d="M85.35,431l.62-1.77,8.69,3a1.64,1.64,0,0,0,2.09-1l13.9-39.79a1.64,1.64,0,0,0-1-2.09l-8.67-3,.61-1.76,8.67,3a3.51,3.51,0,0,1,2.16,4.47l-13.9,39.79A3.52,3.52,0,0,1,94,434Z" style="fill:#263238"></path><rect x="107.49" y="406.61" width="2.83" height="44.19" style="fill:#FFC727"></rect><rect x="49.93" y="410.12" width="57.71" height="2.27" style="fill:#FFC727"></rect><path d="M49.17,402l15.26-3.31-3.55-16.37L45.62,385.6Zm1.06-5.59-2-9.23,10.93-2.37,2,9.23Z" style="fill:#263238"></path><polygon points="67.75 440.89 67.72 440.88 68.68 440.37 68.67 440.32 68.67 440.31 67.65 440.08 68.6 439.56 68.59 439.51 67.56 439.27 68.52 438.76 68.51 438.7 67.48 438.47 68.43 437.95 68.42 437.9 67.39 437.66 68.35 437.15 68.34 437.09 67.32 436.85 68.27 436.33 68.26 436.28 68.26 436.28 67.24 436.04 68.18 435.53 68.18 435.48 67.15 435.24 68.1 434.72 68.1 434.67 68.1 434.67 67.07 434.43 68.02 433.92 68.01 433.87 68.01 433.86 66.99 433.63 67.94 433.11 67.93 433.06 66.91 432.82 67.86 432.31 67.85 432.25 66.82 432.01 67.77 431.5 67.77 431.44 66.74 431.21 67.69 430.7 67.69 430.64 66.66 430.4 67.61 429.89 67.6 429.83 66.58 429.59 67.53 429.08 67.52 429.03 66.49 428.79 67.44 428.28 67.44 428.22 66.41 427.98 67.36 427.47 67.36 427.41 66.33 427.18 67.28 426.67 67.28 426.61 66.25 426.37 67.19 425.86 67.19 425.8 66.17 425.56 67.12 425.05 67.11 425 66.08 424.76 67.03 424.24 67.03 424.19 66 423.95 66.95 423.44 66.95 423.38 65.92 423.14 66.87 422.63 66.87 422.57 65.84 422.33 66.79 421.82 66.78 421.77 65.75 421.53 66.71 421.02 66.7 420.96 65.67 420.73 66.62 420.21 66.61 420.16 65.59 419.92 66.55 419.41 66.54 419.35 65.51 419.12 66.46 418.6 66.46 418.6 66.45 418.54 65.42 418.3 66.38 417.79 66.37 417.74 65.34 417.5 66.3 416.98 66.29 416.93 65.26 416.69 66.21 416.18 66.21 416.13 65.17 415.89 66.13 415.37 66.13 415.32 65.09 415.08 66.05 414.57 66.04 414.52 65.01 414.28 65.97 413.75 65.96 413.71 64.93 413.47 65.89 412.95 65.88 412.9 64.85 412.66 65.8 412.14 65.8 412.09 64.76 411.85 65.72 411.34 65.71 411.29 64.68 411.05 65.64 410.53 65.63 410.48 64.6 410.24 65.56 409.73 65.55 409.67 64.52 409.43 65.47 408.92 65.47 408.87 64.44 408.63 65.39 408.11 65.39 408.06 64.36 407.82 65.31 407.31 65.31 407.26 64.27 407.02 65.22 406.5 65.22 406.44 64.19 406.2 65.15 405.7 65.14 405.64 64.11 405.4 65.06 404.89 65.06 404.83 64.02 404.6 64.98 404.08 64.98 404.03 63.95 403.79 64.91 403.27 64.89 403.22 63.86 402.99 64.82 402.47 64.81 402.42 63.78 402.18 64.73 401.66 64.73 401.61 63.69 401.38 64.65 400.85 64.64 400.81 63.61 400.57 64.57 400.05 64.57 400 63.53 399.76 64.48 399.24 64.43 398.66 49.17 401.97 60.01 442.49 67.75 440.89" style="fill:#c7c7c7"></polygon><g style="opacity:0.30000000000000004"><polygon points="52.7 415.17 64.35 405.46 64.98 404.93 65.06 404.86 65.06 404.83 64.02 404.6 64.98 404.08 64.98 404.03 63.95 403.79 64.91 403.27 64.89 403.22 63.86 402.99 64.82 402.47 64.81 402.42 64.1 402.25 51.96 412.37 52.7 415.17" style="fill:#fff"></polygon><polygon points="61.58 442.17 67.04 441.04 68.07 440.18 67.65 440.08 68.6 439.56 68.59 439.51 67.56 439.27 68.52 438.76 68.51 438.7 67.48 438.47 68.43 437.95 68.42 437.9 67.39 437.66 68.35 437.15 68.34 437.09 67.82 436.97 61.58 442.17" style="fill:#fff"></polygon><polygon points="66.8 427.78 67.36 427.47 67.36 427.41 67.26 427.39 66.8 427.78" style="fill:#fff"></polygon><polygon points="58.77 437.88 66.76 431.22 66.83 431.16 67.51 430.6 66.66 430.4 67.61 429.89 67.6 429.83 66.58 429.59 67.53 429.08 67.52 429.03 66.49 428.79 67.44 428.28 67.44 428.22 66.52 428.01 58.03 435.08 58.77 437.88" style="fill:#fff"></polygon><polygon points="51.34 410.08 63.68 399.79 64.08 399.46 64.47 399.13 64.43 398.66 62.48 399.08 50.97 408.68 51.34 410.08" style="fill:#fff"></polygon><polygon points="66.36 424.03 66 423.95 66.95 423.44 66.95 423.38 66.3 423.23 56.95 431.03 57.13 431.73 66.36 424.03" style="fill:#fff"></polygon><polygon points="50.71 407.71 60.57 399.5 59.18 399.8 50.52 407.01 50.71 407.71" style="fill:#fff"></polygon></g><path d="M60.47,419.59H63a2.5,2.5,0,0,1,2.5,2.5v19.24a0,0,0,0,1,0,0H58a0,0,0,0,1,0,0V422.09A2.5,2.5,0,0,1,60.47,419.59Z" transform="translate(237.43 828.25) rotate(164.33)" style="fill:#37474f"></path><rect x="55.98" y="418.03" width="5.05" height="2" transform="matrix(-0.96, 0.27, -0.27, -0.96, 228.04, 806.68)" style="fill:#37474f"></rect><rect x="54.52" y="396.89" width="1.6" height="21.57" transform="translate(218.75 785.25) rotate(164.32)" style="fill:#ebebeb"></rect><path d="M50.34,395.91s0-3.46.15-3.49l.52-.15h0l.52-.14c.1,0,1.94,2.9,1.94,2.9l-.29,2-1.53.43Z" style="fill:#ebebeb"></path><rect x="63.26" y="421.08" width="1.31" height="16.81" transform="translate(241.48 825.72) rotate(164.33)" style="fill:#263238"></rect><rect x="60.92" y="421.73" width="1.31" height="16.81" transform="translate(237.06 827.64) rotate(164.33)" style="fill:#263238"></rect><rect x="58.58" y="422.39" width="1.31" height="16.81" transform="translate(232.64 829.57) rotate(164.33)" style="fill:#263238"></rect><path d="M67.4,395.95h2.49a2.5,2.5,0,0,1,2.5,2.5v19.24a0,0,0,0,1,0,0h-7.5a0,0,0,0,1,0,0V398.45a2.5,2.5,0,0,1,2.5-2.5Z" transform="translate(20.34 -2.91) rotate(2.85)" style="fill:#37474f"></path><rect x="65.53" y="417.68" width="5.05" height="2" transform="translate(20.93 -2.87) rotate(2.85)" style="fill:#37474f"></rect><rect x="66.66" y="419.67" width="1.6" height="21.57" transform="translate(21.53 -2.83) rotate(2.86)" style="fill:#ebebeb"></rect><path d="M68.45,443.2s-1.15,3.26-1.26,3.26l-.53,0h0l-.53,0c-.1,0-.92-3.36-.92-3.36l.92-1.85,1.59.08Z" style="fill:#ebebeb"></path><rect x="65.59" y="398.65" width="1.31" height="16.81" transform="matrix(1, 0.05, -0.05, 1, 20.35, -2.79)" style="fill:#263238"></rect><rect x="68.02" y="398.77" width="1.31" height="16.81" transform="translate(20.36 -2.92) rotate(2.85)" style="fill:#263238"></rect><rect x="70.45" y="398.89" width="1.31" height="16.81" transform="matrix(1, 0.05, -0.05, 1, 20.34, -3.03)" style="fill:#263238"></rect><rect x="76.42" y="399.29" width="6.46" height="40.04" transform="translate(208.94 826.06) rotate(173.12)" style="fill:#263238"></rect><rect x="73.24" y="395.57" width="8.05" height="8.05" transform="translate(201.84 787.06) rotate(173.12)" style="fill:#c7c7c7"></rect><path d="M80.82,395.5s7.62-5.47,11.59-5.95l1.66,13.78-12.37-.61Z" style="fill:#c7c7c7"></path><g style="opacity:0.2"><polygon points="93.17 395.92 88.02 403.03 88.01 403.03 84.88 402.88 92.72 392.1 93.17 395.92" style="fill:#fff"></polygon><path d="M91.82,389.66,82.3,402.75l-.6,0-.14-1.17,8.13-11.21A11.81,11.81,0,0,1,91.82,389.66Z" style="fill:#fff"></path><path d="M88,391.12l-6.62,9.11-.12-1,5.42-7.46C87.13,391.57,87.58,391.33,88,391.12Z" style="fill:#fff"></path></g><rect x="88.86" y="396.23" width="4.93" height="7.7" transform="matrix(0.99, 0.16, -0.16, 0.99, 64.87, -9.44)" style="fill:#ebebeb"></rect><path d="M94,398.94l3.29.53c.51.08,2.8-1.87,4.35-1.62l1.7.27c1.47.24,7.41,2.73,6.79,6.56l-.37,2.28s-.52-2.15-1.85-2.75a2.63,2.63,0,0,0-3.46,1.26,25.71,25.71,0,0,0-1.15,3.34l-6-1a22.64,22.64,0,0,0-.57-4.1c-.38-1.05-3.25-1.27-3.25-1.27Z" style="fill:#ebebeb"></path><rect x="97.26" y="408.23" width="3.8" height="13.73" transform="translate(67.38 -10.49) rotate(9.16)" style="fill:#ebebeb"></rect><rect x="93.82" y="415.35" width="5.66" height="30.57" transform="matrix(0.99, 0.16, -0.16, 0.99, 69.81, -9.9)" style="fill:#263238"></rect><rect x="49.93" y="420.31" width="57.56" height="30.49" style="fill:#FFC727"></rect><g style="opacity:0.1"><path d="M49.93,423.83c2.79-.11,5.58-.17,8.38-.22s5.58,0,8.37-.06l8.38.06c2.79.05,5.58.1,8.37.22-2.79.13-5.58.18-8.37.23l-8.38.06c-2.79,0-5.58,0-8.37-.06S52.72,424,49.93,423.83Z"></path><path d="M63.58,426.61c3.66-.12,7.32-.18,11-.23l11-.06,11,.06c3.66.05,7.32.11,11,.23-3.66.12-7.32.17-11,.22l-11,.07-11-.07C70.9,426.78,67.24,426.73,63.58,426.61Z"></path><path d="M97.72,430.78c-3.37.12-6.73.17-10.1.22l-10.11.07L67.4,431c-3.37-.05-6.74-.1-10.11-.22,3.37-.12,6.74-.18,10.11-.23l10.11-.06,10.11.07C91,430.6,94.35,430.66,97.72,430.78Z"></path><path d="M49.93,432.45c2.14-.12,4.28-.18,6.42-.22s4.29-.05,6.43-.07,4.28,0,6.42.07,4.28.1,6.43.22c-2.15.12-4.29.18-6.43.22s-4.28.05-6.42.07-4.28,0-6.43-.07S52.07,432.57,49.93,432.45Z"></path><polygon points="49.93 434.46 56.35 434.32 62.78 434.24 75.63 434.17 88.48 434.24 94.91 434.32 101.33 434.46 94.91 434.6 88.48 434.69 75.63 434.75 62.78 434.68 56.35 434.6 49.93 434.46"></polygon><path d="M107.49,436.05c-2.35.12-4.7.17-7,.22s-4.69,0-7,.07-4.7,0-7.05-.07-4.7-.1-7-.22c2.35-.12,4.7-.18,7-.22s4.7-.05,7.05-.07,4.69,0,7,.07S105.14,435.93,107.49,436.05Z"></path><path d="M71.69,438.49c2.17-.12,4.34-.17,6.51-.22s4.34,0,6.51-.07,4.34,0,6.51.07,4.33.1,6.5.22c-2.17.12-4.33.18-6.5.22s-4.34.05-6.51.07-4.34,0-6.51-.07S73.86,438.61,71.69,438.49Z"></path><path d="M49.93,443c3.58-.12,7.15-.17,10.73-.22l10.72-.07,10.73.07c3.58,0,7.15.1,10.73.22-3.58.12-7.15.18-10.73.22l-10.73.07-10.72-.07C57.08,443.19,53.51,443.13,49.93,443Z"></path><path d="M107.49,446.08c-2.4.12-4.8.17-7.2.22s-4.79,0-7.19.07-4.8,0-7.2-.07-4.79-.1-7.19-.22c2.4-.12,4.8-.18,7.19-.23s4.8,0,7.2-.06,4.8,0,7.19.07S105.09,446,107.49,446.08Z"></path><path d="M49.93,448.65c2-.12,4-.18,6-.22s4-.05,6-.07,4,0,6,.07,4,.1,6,.22c-2,.12-4,.17-6,.22s-4,.05-6,.07-4,0-6-.07S51.94,448.77,49.93,448.65Z"></path></g></g></svg>